# xmcd
#
# Track frame offsets: 
#        150
#        24120
#        45922
#        68300
#        88642
#        106242
#        122892
#        149152
#        166432
#        183480
#
# Disc length: 2704 seconds
#
# Revision: 4
# Processed by: cddbd v1.5.2PL0 Copyright (c) Steve Scherf et al.
# Submitted via: ExactAudioCopy v1.0b1
#
DISCID=7c0a8e0a
DTITLE=Patti La Belle - Winner In You
DYEAR=1986
DGENRE=blues
TTITLE0=Oh, People
TTITLE1=On My Own (duet with Michael McDonald)
TTITLE2=Something Special
TTITLE3=Kiss Away the Pain
TTITLE4=Twisted
TTITLE5=You're Mine Tonight
TTITLE6=Finally We're Back Together Again
TTITLE7=Beat My Heart Like a Drum
TTITLE8=Sleep With Me Tonight
TTITLE9=There's a Winner In You
EXTD=MCA Records
EXTT0=
EXTT1=
EXTT2=
EXTT3=
EXTT4=
EXTT5=
EXTT6=
EXTT7=
EXTT8=
EXTT9=
PLAYORDER=
